<svg width="272" height="280" viewBox="0 0 272 280" fill="none" xmlns="http://www.w3.org/2000/svg">
<ellipse cx="136" cy="140" rx="136" ry="140" fill="#67B0FF"/>
<path d="M135.821 7C207.613 7 265.821 66.6856 265.821 140.301C265.821 199.12 228.608 249.107 176.597 266.592C169.935 267.925 167.66 263.759 167.66 260.26C167.66 255.927 167.823 241.598 167.823 223.758C167.823 211.272 163.597 203.097 159.047 199.098C187.972 195.821 218.36 184.545 218.36 133.336C218.36 118.784 213.322 106.897 205.035 97.5664C206.335 94.2004 210.722 80.6481 203.735 62.2861C203.685 62.2698 192.791 58.7499 168.148 75.9502C157.748 72.9843 146.698 71.5179 135.648 71.4512C124.598 71.5178 113.548 72.9843 103.148 75.9502C78.3858 58.7795 67.4856 62.2578 67.3981 62.2861C60.4106 80.6481 64.7978 94.2004 66.2604 97.5664C57.9187 106.897 52.8805 118.784 52.8805 133.336C52.8806 184.412 83.2255 195.876 112.096 199.208C108.381 202.54 105.033 208.417 103.863 217.037C103.841 217.047 103.818 217.056 103.796 217.066L103.377 237.71C103.394 237.706 103.412 237.703 103.429 237.699C103.483 248.807 103.591 257.195 103.591 260.36C103.591 263.904 101.208 268.025 94.7086 266.77C43.0662 249.163 5.82101 199.208 5.82092 140.301C5.82092 66.6856 63.9959 7 135.821 7ZM167.409 132.585C169.763 132.585 171.716 134.587 171.716 137.001C171.716 157.318 155.635 173.809 135.821 173.809C125.54 173.809 117.5 168.567 112.044 163.385V167.565C112.044 169.98 110.091 171.982 107.736 171.982C105.381 171.982 103.428 169.98 103.428 167.565V151.371C103.428 148.957 105.381 146.954 107.736 146.954H121.979C124.334 146.954 126.287 148.957 126.287 151.371C126.287 153.786 124.334 155.788 121.979 155.788H116.81C121.06 160.146 127.665 164.975 135.821 164.975C150.868 164.975 163.101 152.43 163.101 137.001C163.101 134.587 165.054 132.585 167.409 132.585ZM135.821 100.194C148.169 100.194 157.243 105.672 163.101 110.913V106.438C163.101 104.023 165.054 102.021 167.409 102.021C169.764 102.021 171.716 104.023 171.716 106.438V123.044C171.659 123.692 171.487 124.281 171.2 124.811C170.913 125.341 170.511 125.812 169.994 126.225C169.592 126.519 169.132 126.754 168.615 126.931C168.213 127.048 167.811 127.107 167.409 127.107H153.453C151.098 127.107 149.145 125.106 149.145 122.691C149.145 120.277 151.098 118.274 153.453 118.274H158.219C153.625 113.917 146.216 109.087 135.936 109.087C120.889 109.087 108.655 121.631 108.655 137.061C108.54 139.416 106.588 141.418 104.233 141.418C101.878 141.418 99.9254 139.416 99.9254 137.001C99.9257 116.684 116.007 100.194 135.821 100.194Z" fill="white"/>
</svg>
