<svg width="268" height="268" viewBox="0 0 268 268" fill="none" xmlns="http://www.w3.org/2000/svg">
<g transform="translate(0, 3)">
<path d="M134 0C208.001 0 268 59.9985 268 134C268 193.127 229.642 243.378 176.031 260.954C169.164 262.294 166.818 258.106 166.818 254.589C166.818 250.234 166.986 235.829 166.986 217.896C166.986 205.344 162.631 197.126 157.941 193.105C187.756 189.811 219.079 178.477 219.079 126.999C219.079 112.371 213.886 100.422 205.344 91.042C206.684 87.6585 211.206 74.0347 204.004 55.5762C203.979 55.5681 192.753 52.0003 167.321 69.3115C156.601 66.33 145.211 64.8561 133.821 64.7891C122.431 64.8561 111.041 66.33 100.321 69.3115C74.7848 52.0424 63.5511 55.551 63.4717 55.5762C56.2692 74.0347 60.7913 87.6585 62.2988 91.042C53.7005 100.422 48.5078 112.371 48.5078 126.999C48.508 178.343 79.7859 189.867 109.545 193.217C105.715 196.567 102.265 202.474 101.059 211.14C101.036 211.15 101.012 211.159 100.989 211.169L100.557 231.92C100.575 231.916 100.593 231.913 100.611 231.909C100.667 243.076 100.779 251.507 100.779 254.689C100.779 258.252 98.322 262.395 91.6221 261.133C38.3907 243.434 0 193.217 0 134C2.88585e-05 59.9985 59.965 2.06101e-06 134 0ZM166.56 126.243C168.987 126.243 171 128.256 171 130.684C171 151.108 154.424 167.684 134 167.684C123.403 167.684 115.115 162.415 109.491 157.205V161.408C109.491 163.835 107.478 165.849 105.051 165.849C102.624 165.848 100.611 163.835 100.611 161.408V145.128C100.612 142.701 102.624 140.689 105.051 140.688H119.732C122.159 140.688 124.173 142.701 124.173 145.128C124.173 147.555 122.16 149.568 119.732 149.568H114.405C118.786 153.949 125.594 158.804 134 158.804C149.51 158.804 162.12 146.194 162.12 130.684C162.12 128.257 164.133 126.243 166.56 126.243ZM134 93.6836C146.728 93.6836 156.082 99.1892 162.12 104.458V99.959C162.12 97.5319 164.133 95.5188 166.56 95.5186C168.987 95.5186 171 97.5318 171 99.959V116.653C170.941 117.304 170.763 117.896 170.467 118.429C170.171 118.962 169.756 119.435 169.224 119.85C168.809 120.146 168.336 120.383 167.803 120.561C167.388 120.679 166.974 120.738 166.56 120.738H152.175C149.748 120.738 147.734 118.725 147.734 116.298C147.734 113.871 149.748 111.858 152.175 111.858H157.088C152.352 107.478 144.715 102.623 134.118 102.623C118.608 102.623 105.998 115.233 105.998 130.743C105.879 133.111 103.867 135.124 101.44 135.124C99.0132 135.124 97 133.111 97 130.684C97 110.26 113.576 93.6836 134 93.6836Z" fill="white"/>
</g>
</svg>
